<svg xmlns="http://www.w3.org/2000/svg" viewBox="0 0 200 200">
  <rect width="200" height="200" rx="32" fill="#ffffff"/>
  <g transform="translate(24, 55)" fill="#000000">
    <!-- p -->
    <path d="M0 90V0h20c22 0 36 14 36 32s-14 32-36 32H14v26H0Zm14-40h6c13 0 22-8 22-18s-9-18-22-18h-6v36Z"/>
    <!-- u -->
    <path d="M64 28v40c0 10 6 16 16 16s16-6 16-16V28h14v40c0 18-12 30-30 30s-30-12-30-30V28h14Z"/>
    <!-- b -->
    <path d="M120 0h14v32c6-4 14-6 20-6 20 0 34 16 34 36s-14 36-34 36c-8 0-16-3-20-6v4h-14V0Zm32 40c-12 0-20 8-20 22s8 22 20 22 20-8 20-22-8-22-20-22Z"/>
  </g>
</svg>
